<?xml version="1.0" encoding="UTF-8" standalone="no"?>
<!DOCTYPE svg PUBLIC "-//W3C//DTD SVG 1.1//EN" "http://www.w3.org/Graphics/SVG/1.1/DTD/svg11.dtd">
<svg width="100%" height="100%" viewBox="0 0 385 385" version="1.1" xmlns="http://www.w3.org/2000/svg" xmlns:xlink="http://www.w3.org/1999/xlink" xml:space="preserve" xmlns:serif="http://www.serif.com/" style="fill-rule:evenodd;clip-rule:evenodd;stroke-linejoin:round;stroke-miterlimit:1.41421;">
    <g transform="matrix(-1,0,-0,1,384.969,0)">
        <g id="Menu_1_">
            <path d="M12.03,120.303L372.939,120.303C379.58,120.303 384.969,114.913 384.969,108.273C384.969,101.632 379.579,96.243 372.939,96.243L12.03,96.243C5.389,96.243 0,101.633 0,108.273C0,114.913 5.39,120.303 12.03,120.303Z" style="fill-rule:nonzero;"/>
            <path d="M372.939,180.455L12.03,180.455C5.389,180.455 0,185.845 0,192.485C0,199.125 5.39,204.515 12.03,204.515L372.939,204.515C379.58,204.515 384.969,199.125 384.969,192.485C384.969,185.845 379.58,180.455 372.939,180.455Z" style="fill-rule:nonzero;"/>
            <path d="M372.939,264.667L132.333,264.667C125.692,264.667 120.303,270.057 120.303,276.697C120.303,283.338 125.693,288.727 132.333,288.727L372.939,288.727C379.58,288.727 384.969,283.337 384.969,276.697C384.97,270.056 379.58,264.667 372.939,264.667Z" style="fill-rule:nonzero;"/>
        </g>
    </g>
</svg>
